<svg width="31" height="25" viewBox="0 0 31 25" fill="none" xmlns="http://www.w3.org/2000/svg">
<path d="M15.3611 0.0761719C22.9998 0.0761719 29.355 5.27149 30.6881 12.1272C29.3564 18.9828 22.9998 24.1781 15.3611 24.1781C7.72248 24.1781 1.36731 18.9828 0.0356445 12.1272C1.36731 5.27149 7.72248 0.0761719 15.3611 0.0761719ZM15.3611 21.5001C18.2506 21.4999 21.0544 20.5724 23.3136 18.8697C25.5727 17.1669 27.1533 14.7897 27.7966 12.1272C27.1516 9.46632 25.5703 7.09113 23.3115 5.39004C21.0527 3.68896 18.25 2.76267 15.3619 2.76267C12.4737 2.76267 9.67104 3.68896 7.41223 5.39004C5.15342 7.09113 3.57215 9.46632 2.92706 12.1272C3.57036 14.7895 5.15077 17.1665 7.4096 18.8692C9.66843 20.572 12.4719 21.4996 15.3611 21.5001ZM15.3611 18.1527C13.6704 18.1527 12.0489 17.5178 10.8533 16.3878C9.65779 15.2578 8.98614 13.7252 8.98614 12.1272C8.98614 10.5291 9.65779 8.99649 10.8533 7.86649C12.0489 6.73649 13.6704 6.10167 15.3611 6.10167C17.0519 6.10167 18.6734 6.73649 19.8689 7.86649C21.0645 8.99649 21.7361 10.5291 21.7361 12.1272C21.7361 13.7252 21.0645 15.2578 19.8689 16.3878C18.6734 17.5178 17.0519 18.1527 15.3611 18.1527ZM15.3611 15.4747C16.3005 15.4747 17.2013 15.122 17.8655 14.4942C18.5297 13.8664 18.9028 13.015 18.9028 12.1272C18.9028 11.2393 18.5297 10.3879 17.8655 9.76012C17.2013 9.13234 16.3005 8.77966 15.3611 8.77966C14.4218 8.77966 13.521 9.13234 12.8568 9.76012C12.1926 10.3879 11.8195 11.2393 11.8195 12.1272C11.8195 13.015 12.1926 13.8664 12.8568 14.4942C13.521 15.122 14.4218 15.4747 15.3611 15.4747Z" fill="#737373"/>
</svg>
